<?xml version="1.0" encoding="UTF-8"?>
<svg viewBox="0 0 400 240" fill="none" xmlns="http://www.w3.org/2000/svg">
  <!-- Nuvem baseada na sua imagem Logoj.png -->
  <path
    fill="#000000"
    d="M320 120c0-4 0-8-.4-12 0-44-36-80-80-80-33 0-62 20-74 48-7-3-15-5-24-5C100 71 60 111 60 151s40 80 80 80h176c34 0 60-26 60-60 0-26-16-48-40-56-8 6-16 5-16 5z"
  />
  <!-- Ícone do carrinho de compras baseado na sua imagem -->
  <g transform="translate(170, 110)" fill="#ffffff" stroke="#ffffff">
    <!-- Corpo do carrinho -->
    <path 
      d="M2 2h8l3.36 16.78a4 4 0 0 0 3.94 3.22H52l5-24H16" 
      stroke-width="4" 
      fill="none" 
      stroke-linecap="round" 
      stroke-linejoin="round"
    />
    <!-- Rodas do carrinho -->
    <circle cx="18" cy="40" r="3" fill="#ffffff"/>
    <circle cx="40" cy="40" r="3" fill="#ffffff"/>
  </g>
</svg>