<?xml version="1.0" encoding="UTF-8"?>
<svg viewBox="0 0 200 120" fill="none" xmlns="http://www.w3.org/2000/svg">
  <!-- Cloud shape sem fundo -->
  <path
    fill="#000000"
    d="M160 60c0-2 0-4-.2-6 0-22-18-40-40-40-16.5 0-31 10-37 24-3.5-1.5-7.5-2.5-12-2.5C50 35.5 30 55.5 30 75.5s20 40 40 40h88c17 0 30-13 30-30 0-13-8-24-20-28-4 3-8 2.5-8 2.5z"
  />
  <!-- Shopping cart icon -->
  <g transform="translate(85, 55)" fill="#ffffff">
    <!-- Cart body -->
    <path d="M0 0h4l1.68 8.39a2 2 0 0 0 1.97 1.61H26l2.5-12H8" stroke="#ffffff" stroke-width="2" fill="none" stroke-linecap="round" stroke-linejoin="round"/>
    <!-- Cart wheels -->
    <circle cx="9" cy="20" r="1" fill="#ffffff"/>
    <circle cx="20" cy="20" r="1" fill="#ffffff"/>
  </g>
</svg>