<svg width="240" height="58" viewBox="0 0 240 58" fill="none" xmlns="http://www.w3.org/2000/svg" role="img" aria-labelledby="title">
  <title id="title">TikTok Shop</title>
  <path d="M39.7 10.1c2.8 4.2 6.5 6.7 11.1 7.3v10.1c-3.8.1-7.4-.8-10.9-2.7v13.1c0 10.1-6.7 17-16.7 17-9.5 0-16.7-6.8-16.7-15.8 0-9.4 7.6-16 17.2-15.3v10.3c-4-.7-7.2 1.6-7.2 5.1 0 3.1 2.6 5.3 6.1 5.3 3.8 0 6.4-2.6 6.4-7.2V3.1h10.7v7Z" fill="#111111"/>
  <text x="64" y="36" fill="#111111" font-family="Arial, Helvetica, sans-serif" font-size="28" font-weight="800" letter-spacing="-0.8">TikTok Shop</text>
</svg>
